<svg xmlns="http://www.w3.org/2000/svg" version="1.1" viewBox="-5.0 -10.0 110.0 135.0">
 <path d="m37.031 95.141 0.058594 0.058594c0.13281-0.023438 0.22266-0.082031 0.33594-0.14844 0.36328-0.19531 0.73438-0.375 1.1133-0.54297-0.15625-0.17969-0.3125-0.39453-0.48828-0.55859-0.32422 0.28516-0.91406 0.75-1.0195 1.1953z" fill="#F58800"/>
 <path d="m53.504 92.926c-0.58203 0.21875-1.0508 0.47656-1.5078 0.89844l0.46875-0.058594c0.49219-0.015625 0.98047-0.042969 1.4688-0.11328-0.078125-0.16406-0.24219-0.67188-0.38281-0.73438l-0.050781 0.003906z" fill="#F58800"/>
 <path d="m49.16 61.965c-1.3125-1.1055-2.3945-2.6094-3.2656-4.0781-1.9531 0.003906-3.9023-0.14844-5.832-0.45703 1.5078 3.1992 3.5625 6.1641 4.8672 9.4453 0.75391 2.125 0.73828 4.5391 0.29687 6.7188-0.55859 3.9023-1.4648 8.1836-2.6172 11.953-0.91016 2.9727-1.2852 3.8281-4.0938 5.3164-0.96484 0.51172-1.957 0.93359-2.9766 1.3242 0.17578 0.48047 0.41016 0.75391 0.82422 1.0508 2.4922 0.027344 4.6211-2.1133 5.8867-4.0781-0.19922 0.68359-0.42969 1.2109-0.83984 1.7891-0.98828 1.2812-1.7383 1.5273-2.8867 2.4453 0.16016 0.33984 0.44141 0.73828 0.81641 0.85938 0.30859 0.097656 0.61719-0.03125 0.88281-0.1875 1.0391-0.60156 2.4844-1.9805 3.0547-3.0195 0.49219-0.99609 0.54688-2.1445 0.75391-3.2227 0.97656-5.4883 2.3398-10.945 4.1562-16.215 0.375-0.94531 1.0117-1.7852 1.1914-2.8008 0.26172-1.168-0.17578-2.25-0.44141-3.3633-0.17188-1.1523 0.007812-2.3438 0.22656-3.4766z" fill="#F58800"/>
 <path d="m13.551 12.227c-0.13281-0.48047-1.2852-0.99609-1.6562-1.4023-0.46875-0.51172-0.76562-1.3945-1.5586-1.418-1.2617 1.418-3.2969 1.3945-4.3516 3.0352 1.3438-0.35156 5.1914-0.76172 6.4375-0.77734l0.039063 0.066407c-0.058594 0.13672-0.15234 0.19531-0.28906 0.25391-1.6523 0.47656-3.8789 0.33203-5.5469 0.86719 1.7734 0.60938 5.0703 0.34375 6.7539-0.42578 0.10547-0.046875 0.13281-0.10156 0.17578-0.20703z" fill="#F58800"/>
 <path d="m34.891 92.512c-0.44141 0.14062-0.89453 0.35156-1.1992 0.71875v0.082031c0.09375 0.011719 0.15625-0.003906 0.24609-0.03125 0.43359-0.085938 0.86328-0.17969 1.3008-0.24609-0.085937-0.16797-0.17188-0.46094-0.34766-0.52344z" fill="#F58800"/>
 <path d="m43.465 91.789c0.24609 0.25391 0.46094 0.51563 0.66406 0.80078l0.0625 0.050781c0.17578-0.58203-0.16406-1.4375-0.46484-1.9414-0.046874 0.37891-0.14844 0.72656-0.26562 1.0859z" fill="#F58800"/>
 <path d="m54.949 95.859 0.375-0.21094c0.51172-0.29297 1.0156-0.54297 1.5664-0.75391-0.15625-0.25391-0.28516-0.65625-0.47266-0.86719-0.59375 0.53906-1.0938 1.1172-1.4688 1.8281z" fill="#F58800"/>
 <path d="m93.824 54.527c-0.62109-0.78125-1.0859-1.7383-1.5508-2.6172-1.5664-2.9727-2.4883-4.3828-5.3281-6.3516 1.6484 0.54297 2.6484 1.2891 3.8281 2.5391-1.2188-2.4688-2.3203-3.7656-4.9844-4.6797-1.3281-0.45703-1.8672-0.33203-3.1445-1.2539 1.7383 0.74219 3.8906 1.0703 5.2656-0.53125-2.4531 0.53906-4.707 0.007813-6.8125-1.332-3.5234-2.2695-5.9414-5.8711-9.2852-8.375-7.6953-6.0781-19.34-7.7461-28.891-7.0195-6.1641 0.65234-11.781 3.1211-16.738 6.7852-1.8984 1.207-4.4219 4.3828-6.75 2.8828-3.3867-2.8086-1.375-7.7148-0.027344-11.086 1.1836-3.1289 2.2656-6.3359 2.5352-9.6797 0.32812 0.3125 0.54688 0.66797 0.78125 1.0508-0.027344-0.74219-0.19141-1.4961-0.53516-2.1562 0.35156 0.26953 0.69922 0.55078 1.0859 0.76953-0.26953-0.67578-0.32422-1.2031-0.90234-1.6992 0.32422 0.10156 0.64844 0.21094 0.96875 0.32422 0.019531-0.42188-0.67188-0.94531-0.91016-1.2969 0.47656 0.35938 0.91797 0.80859 1.4258 1.1172-0.57812-0.96094-0.91016-1.6836-1.793-2.4336 0.63672 0.074219 1.1094 0.30469 1.6641 0.60547-0.66406-0.71484-1.2656-1.4336-2.125-1.9141 0.64844 0.039063 1.2188 0.13672 1.8242 0.36719-0.92188-0.75391-1.7812-1.2227-2.9766-1.3711 0.65625-0.34375 1.2656-0.42188 1.9922-0.50391-0.90625-0.43359-1.7344-0.80078-2.7461-0.90234 0.32813-0.22656 0.66406-0.44141 1.0234-0.61719-1.0664-0.17578-2.2109-0.16016-3.2852-0.066407 0.27344-0.28125 0.55859-0.54297 0.85938-0.80078-0.83203 0.25-1.6953 0.27344-2.4883 0.65234l0.87109-0.8125v-0.046875l-0.035156-0.011719c-2.6523 1.0508-4.8047 2.2656-6.2188 4.8555 1.0391 0.058593 1.2891 0.87891 1.9336 1.5234 1.9258 1.3125 2.9531 2.1133 0.011719 2.9414 1.6289 0.74219 2.875 1.6914 4.7617 1.5977 0.56641-0.027344 1.1172-0.14453 1.6758-0.19531-1.0703 0.75-2.0977 0.79297-3.3594 0.66406 0.54688 3.1094-0.77734 6.125-1.875 8.9648-2.0742 5.2695-3.9883 9.9766-1.8633 15.617 2.1523 6 7.4961 7.5781 12.984 9.2617 1.5312 0.90625 2.7852 2.2852 4.3203 3.2109 5.2695 3.5078 10.242 4.3672 16.465 4.6797-0.1875-0.30859-1.0469-1.5898-1.0312-1.8594 0.070313-0.10156 0.0625-0.10156 0.17969-0.12891 0.42969 0.33984 0.95703 1.4023 1.3047 1.9023 1.1328 1.6719 2.3672 3.293 3.8789 4.6406 1.0195 0.95312 2.1445 1.7852 3.3047 2.5547 1.0039 0.67578 2.582 1.5078 3.1758 2.5664 0.45703 0.81641 0.47266 1.8477 0.77344 2.7266 0.21094 0.62109 0.60938 1.1523 0.82812 1.7656 1.1016 4.1953 1.1914 8.7891 1.0508 13.117 0.050782 3.9609-1.1367 6.3086-4.75 8.1289 0.15234 0.35938 0.34766 0.99609 0.73438 1.1484 0.25391 0.10156 0.54297 0.015625 0.77344-0.10156 1.043-0.53906 2.2266-2.0625 2.6602-3.1367 0.21875-0.54297 0.32422-1.1445 0.57031-1.668 0.003906 2.1211-0.71875 3.0977-2.0312 4.6641 0.14844 0.44922 0.35156 0.84766 0.64844 1.2227 2.1289-1.0977 3.5586-3.6055 3.75-5.957 0.003906-1.1602-0.24609-3.5273-0.30469-4.707-0.31641-4.3555-0.54297-8.7305-0.050782-13.082 0.14844-1.3477 0.69922-3.3672 0.28906-4.6406-0.32031-1.0742-1.3711-1.6797-1.9492-2.6016-1.2891-2.1484-3.5508-8.2148-2.5742-10.578l0.085938-0.035156 0.066406 0.042969c-0.0625 1.2539 0.019531 2.5664 0.39453 3.7734 3.6172-1.0312 7.7578-3.4297 10.168-6.3438-0.17969 0.52344-0.39844 1.0195-0.625 1.5234 0.30859 0.78906 0.70312 1.4219 1.2852 2.0352-0.16016-1.6133-0.22656-3.2383 0.33594-4.7695 0.027343-0.035157 0.039062-0.042969 0.074219-0.078125l0.078124-0.007813c-0.69922 2.6602 0.41797 5.3633 2.2852 7.3164-0.25391-2.0781-0.35938-4.2383 0.47266-6.1992 0.058594-0.074219 0.027344-0.046875 0.13281-0.066407 0.14062 0.30859-0.1875 1.2773-0.21875 1.6641-0.20313 2.4766 1.4961 5.4648 3.2148 7.1641-0.64453-2.1328-1.2383-3.832-0.85547-6.0938 0.097657 1.9727 0.47266 3.4414 1.4375 5.1719 0.65625 1.0664 1.457 2.0117 2.4531 2.7734 2.1836 1.6758 3.7266 1.918 4.2305 5.0508 0.54297-2.0234-0.625-4.0312-2.1484-5.2891 4.2617 2.2344 4.3633 8.3945 2.5781 12.309 3.5508-2.6992 5.6602-5.9414 5.8281-10.504 0.37109 1.5547-0.011719 2.8008-0.26172 4.3047-0.13281 1.2852-0.35938 2.5508-0.71875 3.793 2.7969-3.3398 5.3867-8.4531 3.3906-12.758 1.0898 1.2188 1.9531 3.3047 2.332 4.8906 0.55469-4.4844-0.30859-7.7109-2.6445-11.539 1.4922 1.3242 1.8281 2.2891 3.7344 3.25zm-78.184-44.203c-1.6953 0.21094-2.6016-1.9883-0.6875-2.4766 0.32812-0.011718 0.64062 0.019532 0.94531 0.16016 1.2031 0.55469 1.0625 2.0469-0.25781 2.3164zm51.074 35.656c0.62109 1.1758 0.95703 2.4141 1.2148 3.707-2.1484 0.49609-4.1602-0.027344-6.1875-0.71875 0.55078 0.41016 1.1758 1.0195 0.98047 1.7734-0.85938 1.9414-6.8828 0.8125-8.5938 0.37109 3.5234 3.2227-1.2227 2.5508-3.3789 2.457-3.8984-0.37109-7.4414-1.707-10.5-4.1758-2.9609-2.3945-5.4883-5.7031-6.7852-9.2969-0.31641-0.87891-0.58203-1.7695-0.67578-2.7031-0.015624-0.16016-0.042968-0.35938 0.066407-0.49219l0.097656 0.007812c1.5898 6.7656 6.8281 12.59 13.375 14.984 2.5703 0.91016 5.7031 1.3281 8.4062 0.96094-1.1211-1.8164-3.2305-3.0508-4.6875-4.6172-0.28906-0.30859-0.98438-0.96484-0.96875-1.3828l0.066406-0.050781c0.25781 0.078124 1.582 1.6797 1.9961 2.0273 1.582 1.3242 3.7031 1.9297 5.7227 2.1953 0.96484 0.125 4.332 0.31641 5.0352-0.27734 1.0898-1.375-4.1445-3.2461-4.9492-4.0977-0.11719-0.10547-0.21484-0.19531-0.22266-0.35938 0.058594-0.070313 0.03125-0.078125 0.10938-0.054688 0.27344 0.082031 0.54687 0.32812 0.80469 0.46094 2.7969 1.1484 6.543 2.7852 9.5859 2.4102-0.58594-2.7227-2.2852-5.293-4.5898-6.8555 1.5352 0.37109 2.4297 1.7461 3.4883 2.7734 0.9375 0.46484 2.0664 0.71875 2.957 1.3398-0.51953-3.6914-2.7578-6.7852-5.1953-9.4922-1.6797-2.1602-4.0898-3.4141-6.5312-4.5195 2.3594 0.20312 4.4414 1.9453 6.2812 3.3086-0.94922-3.6641-4.793-5.7461-8.1562-6.8438-0.36719-0.12109-1.2539-0.25781-1.4727-0.54297 0.88281-0.13672 1.8164 0.24609 2.6367 0.53125 3.6445 1.2852 7.0977 3.6758 7.8789 7.6719 2.543 3.125 5.2578 6.8281 5.1836 11.082-0.98438-0.58984-1.9336-1.1445-2.9961-1.582z" fill="#F58800"/>
 <path d="m14.934 8.3516c-0.25391 0.10156-0.67578 0.34375-0.50781 0.67188l0.070313-0.023438c0.28125-0.88281 1.4102-0.63672 1.3477 0.27734-0.082031 0.1875-0.17188 0.27734-0.32031 0.41406 0.20312-0.035156 0.38672-0.097656 0.51172-0.26953 0.41016-0.66797-0.53516-1.1367-1.1016-1.0664z" fill="#F58800"/>
 <path d="m61.418 90.77c0.27734 0.21094 0.55859 0.41406 0.82812 0.63672l0.058594 0.003906c0.027343-0.32422-0.39844-1.2031-0.61719-1.4844-0.070312 0.29297-0.15234 0.56641-0.26562 0.84766z" fill="#F58800"/>
</svg>
